<svg width="999" height="999" viewBox="0 0 999 999" fill="none" xmlns="http://www.w3.org/2000/svg">
<g clip-path="url(#clip0_1250_27)">
<path d="M931.7 998.3C968.2 998.3 998.1 968.9 998.1 932.9V265.8C998.1 229.8 968.2 200.4 931.7 200.4H283.6L543.7 998.3H931.7Z" fill="#DBDBDB"/>
<path d="M931.7 230.4C941.4 230.4 950.6 234.2 957.5 241C964.3 247.7 968.1 256.5 968.1 265.8V932.9C968.1 942.2 964.4 951 957.5 957.7C950.6 964.5 941.4 968.3 931.7 968.3H565.5L324.9 230.4H931.7ZM931.7 200.4H283.6L543.7 998.3H931.7C968.2 998.3 998.1 968.9 998.1 932.9V265.8C998.1 229.8 968.2 200.4 931.7 200.4Z" fill="#DCDCDC"/>
<path d="M482 810L543.4 998.5L714.1 810H482Z" fill="#055B2A"/>
<path d="M808.885 644.869H637.995L606.516 732H552.55L694.209 342.439H753.233L894.329 732H840.364L808.885 644.869ZM794.269 603.271L723.44 405.399L652.611 603.271H794.269Z" fill="#607988"/>
<path d="M66.4 0C29.9 0 0 29.9 0 66.5V743.5C0 780 29.9 809.9 66.4 809.9H714.5L454.4 0H66.4Z" fill="#0F7839"/>
<path d="M471.147 252.555V309.814H427.875V576H359.689V461.046H316.855V464.98C316.855 490.914 308.55 511.602 291.941 527.046C275.332 542.49 253.332 550.212 225.941 550.212C205.543 550.212 187.623 546.424 172.179 538.848C156.735 530.98 144.643 520.053 135.901 506.066C127.45 492.079 123.225 476.053 123.225 457.986H187.477C187.477 467.311 190.537 475.179 196.656 481.589C203.067 488 211.371 491.205 221.57 491.205C231.769 491.205 239.782 488.145 245.61 482.026C251.729 475.907 254.789 467.894 254.789 457.986C254.789 448.37 251.292 440.212 244.298 433.51C237.596 426.808 227.543 423.457 214.139 423.457H194.47V367.946H214.139C225.504 367.946 234.537 365.178 241.239 359.642C247.941 353.814 251.292 346.383 251.292 337.35C251.292 328.026 248.378 320.595 242.55 315.059C237.014 309.522 229.875 306.754 221.133 306.754C211.808 306.754 204.086 309.522 197.967 315.059C192.139 320.595 189.225 327.734 189.225 336.476H125.848C125.848 319.284 129.782 303.986 137.649 290.582C145.517 277.178 156.59 266.834 170.868 259.549C185.437 252.264 202.192 248.622 221.133 248.622C248.815 248.622 270.961 255.906 287.57 270.476C304.179 284.754 312.484 303.986 312.484 328.171C312.484 343.907 308.405 357.456 300.246 368.821C292.378 380.185 281.014 388.344 266.153 393.297V395.046C274.895 397.377 282.179 400.582 288.007 404.662H359.689V252.555H471.147Z" fill="#EEEEEE"/>
<path d="M534.3 200.4H931.7C968.2 200.4 998.1 229.8 998.1 265.8V666L534.3 200.4Z" fill="url(#paint0_linear_1250_27)"/>
</g>
<defs>
<linearGradient id="paint0_linear_1250_27" x1="534.3" y1="433.2" x2="998.1" y2="433.2" gradientUnits="userSpaceOnUse">
<stop stop-color="white" stop-opacity="0.2"/>
<stop offset="1" stop-color="white" stop-opacity="0.02"/>
</linearGradient>
<clipPath id="clip0_1250_27">
<rect width="998.1" height="998.3" fill="white"/>
</clipPath>
</defs>
</svg>
